<svg width="402" height="151" viewBox="0 0 402 151" fill="none" xmlns="http://www.w3.org/2000/svg">
<g filter="url(#filter0_d_6441_2026)">
<path d="M26.0713 3.23438H38.8545V37.1748C38.8545 40.5016 38.0798 43.4069 36.5303 45.8906C35.0036 48.3516 32.93 50.2656 30.3096 51.6328C27.6891 53 24.7497 53.6836 21.4912 53.6836C18.1416 53.6836 15.1566 53.1139 12.5361 51.9746C9.91569 50.8353 7.85352 49.0921 6.34961 46.7451C4.8457 44.3753 4.09375 41.3561 4.09375 37.6875H16.9795C16.9795 40.0117 17.3669 41.5384 18.1416 42.2676C18.9163 42.9967 20.0329 43.3613 21.4912 43.3613C22.4938 43.3613 23.3369 43.1107 24.0205 42.6094C24.7041 42.1081 25.2168 41.4017 25.5586 40.4902C25.9004 39.556 26.0713 38.4508 26.0713 37.1748V3.23438ZM44.1182 34.2012C44.1182 30.5781 44.8018 27.3538 46.1689 24.5283C47.5361 21.68 49.5527 19.4355 52.2188 17.7949C54.8848 16.1543 58.166 15.334 62.0625 15.334C66.0046 15.334 69.3086 16.1543 71.9746 17.7949C74.6634 19.4355 76.68 21.68 78.0244 24.5283C79.3916 27.3538 80.0752 30.5781 80.0752 34.2012V34.8506C80.0752 38.4508 79.3916 41.6751 78.0244 44.5234C76.68 47.3717 74.6748 49.6162 72.0088 51.2568C69.3428 52.8747 66.0501 53.6836 62.1309 53.6836C58.2116 53.6836 54.9076 52.8747 52.2188 51.2568C49.5527 49.6162 47.5361 47.3717 46.1689 44.5234C44.8018 41.6751 44.1182 38.4508 44.1182 34.8506V34.2012ZM56.457 34.8506C56.457 36.5368 56.6051 38.0635 56.9014 39.4307C57.2204 40.7751 57.79 41.8346 58.6104 42.6094C59.4307 43.3841 60.6042 43.7715 62.1309 43.7715C63.6348 43.7715 64.7969 43.3841 65.6172 42.6094C66.4375 41.8346 66.9958 40.7751 67.292 39.4307C67.611 38.0635 67.7705 36.5368 67.7705 34.8506V34.2012C67.7705 32.5605 67.611 31.068 67.292 29.7236C66.9958 28.3564 66.4375 27.2741 65.6172 26.4766C64.7969 25.6562 63.612 25.2461 62.0625 25.2461C60.5586 25.2461 59.3965 25.6562 58.5762 26.4766C57.7786 27.2741 57.2204 28.3564 56.9014 29.7236C56.6051 31.068 56.457 32.5605 56.457 34.2012V34.8506ZM91.5596 0.5C93.5876 0.5 95.2168 1.06966 96.4473 2.20898C97.7005 3.34831 98.3271 4.82943 98.3271 6.65234C98.3271 8.45247 97.7005 9.93359 96.4473 11.0957C95.2168 12.235 93.5876 12.8047 91.5596 12.8047C89.5544 12.8047 87.9251 12.235 86.6719 11.0957C85.4186 9.93359 84.792 8.45247 84.792 6.65234C84.792 4.82943 85.4186 3.34831 86.6719 2.20898C87.9251 1.06966 89.5544 0.5 91.5596 0.5ZM97.7461 53H85.373V16.0176H97.7461V53ZM116.408 53H104.104V16.0176H115.622L116.408 23.9131V53ZM112.136 33.6201C112.113 29.7008 112.694 26.3854 113.879 23.6738C115.064 20.9395 116.727 18.8659 118.869 17.4531C121.034 16.0404 123.54 15.334 126.389 15.334C128.667 15.334 130.673 15.7897 132.404 16.7012C134.136 17.6126 135.492 19.1279 136.472 21.2471C137.474 23.3662 137.976 26.2601 137.976 29.9287V53H125.603V29.8945C125.603 28.5729 125.409 27.5817 125.021 26.9209C124.657 26.2601 124.11 25.8158 123.381 25.5879C122.674 25.36 121.797 25.2461 120.749 25.2461C119.655 25.2461 118.732 25.4398 117.98 25.8271C117.251 26.1917 116.659 26.7386 116.203 27.4678C115.77 28.1742 115.451 29.0286 115.246 30.0312C115.064 31.0339 114.973 32.1504 114.973 33.3809L112.136 33.6201ZM201.447 3.23438V35.4658C201.447 39.3851 200.627 42.7005 198.986 45.4121C197.368 48.1237 195.078 50.1859 192.116 51.5986C189.177 52.9886 185.713 53.6836 181.726 53.6836C177.784 53.6836 174.309 52.9886 171.301 51.5986C168.316 50.1859 165.992 48.1237 164.328 45.4121C162.665 42.7005 161.833 39.3851 161.833 35.4658V3.23438H174.719V35.4658C174.719 37.3571 174.981 38.8838 175.505 40.0459C176.029 41.208 176.815 42.0511 177.863 42.5752C178.911 43.0993 180.199 43.3613 181.726 43.3613C183.275 43.3613 184.551 43.0993 185.554 42.5752C186.579 42.0511 187.342 41.208 187.844 40.0459C188.368 38.8838 188.63 37.3571 188.63 35.4658V3.23438H201.447ZM222.57 53.6836C218.97 53.6836 215.939 53.0342 213.479 51.7354C211.018 50.4365 209.149 48.8073 207.873 46.8477C206.62 44.8652 205.993 42.8828 205.993 40.9004H217.478C217.523 41.8802 217.762 42.7005 218.195 43.3613C218.651 43.9993 219.278 44.4893 220.075 44.8311C220.873 45.1501 221.818 45.3096 222.912 45.3096C223.846 45.3096 224.621 45.1956 225.236 44.9678C225.852 44.7399 226.319 44.4095 226.638 43.9766C226.957 43.5436 227.116 43.0309 227.116 42.4385C227.116 41.8688 226.911 41.4017 226.501 41.0371C226.114 40.6725 225.419 40.3307 224.416 40.0117C223.413 39.6699 222.001 39.3053 220.178 38.918C217.808 38.3939 215.632 37.6533 213.649 36.6963C211.667 35.7165 210.083 34.4518 208.898 32.9023C207.736 31.3529 207.155 29.4844 207.155 27.2969C207.155 25.1777 207.759 23.2067 208.967 21.3838C210.174 19.5609 211.929 18.1025 214.23 17.0088C216.532 15.8923 219.323 15.334 222.604 15.334C225.977 15.334 228.894 15.8467 231.354 16.8721C233.815 17.8975 235.707 19.3216 237.028 21.1445C238.373 22.9674 239.045 25.098 239.045 27.5361H226.74C226.74 26.1917 226.433 25.2119 225.817 24.5967C225.202 23.9814 224.12 23.6738 222.57 23.6738C221.932 23.6738 221.317 23.7878 220.725 24.0156C220.155 24.2435 219.688 24.5739 219.323 25.0068C218.981 25.4398 218.811 25.9867 218.811 26.6475C218.811 27.2171 219.016 27.7298 219.426 28.1855C219.859 28.6185 220.497 28.9945 221.34 29.3135C222.183 29.6325 223.254 29.8945 224.553 30.0996C226.991 30.5098 229.304 31.125 231.491 31.9453C233.701 32.7656 235.502 33.9733 236.892 35.5684C238.282 37.1634 238.977 39.3395 238.977 42.0967C238.977 44.2842 238.304 46.2552 236.96 48.0098C235.638 49.7643 233.747 51.1543 231.286 52.1797C228.825 53.1823 225.92 53.6836 222.57 53.6836Z" fill="white"/>
</g>
<g filter="url(#filter1_d_6441_2026)">
<path d="M29.1328 133H11.1094V125.922H29.1328V133ZM14.2266 133H5.41406V98.875H14.2266V133ZM26.8125 118.914H11.1094V112.094H26.8125V118.914ZM29.2031 105.977H11.1094V98.875H29.2031V105.977ZM42.3984 113.992L45.7266 107.641H54.4688L47.9766 119.969L54.7969 133H45.9844L42.375 126.109L38.8359 133H30L36.8203 119.969L30.375 107.641H39.2109L42.3984 113.992ZM69.3281 133.469C66.5156 133.469 64.1172 132.898 62.1328 131.758C60.1641 130.617 58.6641 129.117 57.6328 127.258C56.6016 125.383 56.0859 123.359 56.0859 121.188V120.32C56.0859 117.898 56.5391 115.695 57.4453 113.711C58.3516 111.711 59.7188 110.125 61.5469 108.953C63.375 107.766 65.6719 107.172 68.4375 107.172C70.8906 107.172 72.9844 107.68 74.7188 108.695C76.4531 109.695 77.7812 111.133 78.7031 113.008C79.6406 114.867 80.1094 117.094 80.1094 119.688V123.227H59.25V117.812H71.8594V117.133C71.875 116.398 71.75 115.797 71.4844 115.328C71.2188 114.859 70.8203 114.516 70.2891 114.297C69.7734 114.078 69.1328 113.969 68.3672 113.969C67.2734 113.969 66.4531 114.273 65.9062 114.883C65.3594 115.492 64.9922 116.281 64.8047 117.25C64.6172 118.203 64.5234 119.227 64.5234 120.32V121.188C64.5234 122.312 64.7344 123.289 65.1562 124.117C65.5781 124.93 66.1875 125.555 66.9844 125.992C67.7969 126.43 68.7656 126.648 69.8906 126.648C70.9219 126.648 71.9531 126.469 72.9844 126.109C74.0312 125.75 74.9141 125.117 75.6328 124.211L79.4297 129.062C78.6484 130.156 77.3828 131.164 75.6328 132.086C73.8984 133.008 71.7969 133.469 69.3281 133.469ZM91.5938 133H83.1562V107.641H91.0312L91.5938 114.414V133ZM98.7656 115.703C98.4375 115.672 97.9922 115.633 97.4297 115.586C96.8828 115.539 96.4375 115.516 96.0938 115.516C94.9062 115.516 93.9375 115.672 93.1875 115.984C92.4531 116.281 91.9219 116.75 91.5938 117.391C91.2656 118.031 91.1094 118.875 91.125 119.922L89.6484 118.656C89.6484 116.359 89.9375 114.352 90.5156 112.633C91.0938 110.898 91.9062 109.555 92.9531 108.602C94.0156 107.648 95.2578 107.172 96.6797 107.172C97.0703 107.172 97.4609 107.195 97.8516 107.242C98.2578 107.273 98.6094 107.344 98.9062 107.453L98.7656 115.703ZM112.617 133.469C109.945 133.469 107.719 132.906 105.938 131.781C104.172 130.656 102.844 129.125 101.953 127.188C101.062 125.234 100.617 123.023 100.617 120.555V120.109C100.617 117.641 101.055 115.43 101.93 113.477C102.82 111.523 104.148 109.984 105.914 108.859C107.695 107.734 109.914 107.172 112.57 107.172C114.727 107.172 116.617 107.578 118.242 108.391C119.883 109.188 121.164 110.359 122.086 111.906C123.008 113.453 123.453 115.344 123.422 117.578H115.523C115.539 116.922 115.438 116.32 115.219 115.773C115.016 115.227 114.68 114.789 114.211 114.461C113.742 114.133 113.125 113.969 112.359 113.969C111.375 113.969 110.648 114.25 110.18 114.812C109.711 115.359 109.406 116.102 109.266 117.039C109.125 117.961 109.055 118.984 109.055 120.109V120.555C109.055 121.711 109.117 122.75 109.242 123.672C109.383 124.594 109.695 125.328 110.18 125.875C110.664 126.406 111.414 126.672 112.43 126.672C113.117 126.672 113.695 126.555 114.164 126.32C114.633 126.086 114.977 125.75 115.195 125.312C115.43 124.859 115.539 124.32 115.523 123.695H123.422C123.453 125.68 122.992 127.406 122.039 128.875C121.102 130.328 119.812 131.461 118.172 132.273C116.547 133.07 114.695 133.469 112.617 133.469ZM131.18 97C132.57 97 133.688 97.3906 134.531 98.1719C135.391 98.9531 135.82 99.9688 135.82 101.219C135.82 102.453 135.391 103.469 134.531 104.266C133.688 105.047 132.57 105.438 131.18 105.438C129.805 105.438 128.688 105.047 127.828 104.266C126.969 103.469 126.539 102.453 126.539 101.219C126.539 99.9688 126.969 98.9531 127.828 98.1719C128.688 97.3906 129.805 97 131.18 97ZM135.422 133H126.938V107.641H135.422V133ZM149.906 133.469C147.438 133.469 145.359 133.023 143.672 132.133C141.984 131.242 140.703 130.125 139.828 128.781C138.969 127.422 138.539 126.062 138.539 124.703H146.414C146.445 125.375 146.609 125.938 146.906 126.391C147.219 126.828 147.648 127.164 148.195 127.398C148.742 127.617 149.391 127.727 150.141 127.727C150.781 127.727 151.312 127.648 151.734 127.492C152.156 127.336 152.477 127.109 152.695 126.812C152.914 126.516 153.023 126.164 153.023 125.758C153.023 125.367 152.883 125.047 152.602 124.797C152.336 124.547 151.859 124.312 151.172 124.094C150.484 123.859 149.516 123.609 148.266 123.344C146.641 122.984 145.148 122.477 143.789 121.82C142.43 121.148 141.344 120.281 140.531 119.219C139.734 118.156 139.336 116.875 139.336 115.375C139.336 113.922 139.75 112.57 140.578 111.32C141.406 110.07 142.609 109.07 144.188 108.32C145.766 107.555 147.68 107.172 149.93 107.172C152.242 107.172 154.242 107.523 155.93 108.227C157.617 108.93 158.914 109.906 159.82 111.156C160.742 112.406 161.203 113.867 161.203 115.539H152.766C152.766 114.617 152.555 113.945 152.133 113.523C151.711 113.102 150.969 112.891 149.906 112.891C149.469 112.891 149.047 112.969 148.641 113.125C148.25 113.281 147.93 113.508 147.68 113.805C147.445 114.102 147.328 114.477 147.328 114.93C147.328 115.32 147.469 115.672 147.75 115.984C148.047 116.281 148.484 116.539 149.062 116.758C149.641 116.977 150.375 117.156 151.266 117.297C152.938 117.578 154.523 118 156.023 118.562C157.539 119.125 158.773 119.953 159.727 121.047C160.68 122.141 161.156 123.633 161.156 125.523C161.156 127.023 160.695 128.375 159.773 129.578C158.867 130.781 157.57 131.734 155.883 132.438C154.195 133.125 152.203 133.469 149.906 133.469ZM177.141 133.469C174.328 133.469 171.93 132.898 169.945 131.758C167.977 130.617 166.477 129.117 165.445 127.258C164.414 125.383 163.898 123.359 163.898 121.188V120.32C163.898 117.898 164.352 115.695 165.258 113.711C166.164 111.711 167.531 110.125 169.359 108.953C171.188 107.766 173.484 107.172 176.25 107.172C178.703 107.172 180.797 107.68 182.531 108.695C184.266 109.695 185.594 111.133 186.516 113.008C187.453 114.867 187.922 117.094 187.922 119.688V123.227H167.062V117.812H179.672V117.133C179.688 116.398 179.562 115.797 179.297 115.328C179.031 114.859 178.633 114.516 178.102 114.297C177.586 114.078 176.945 113.969 176.18 113.969C175.086 113.969 174.266 114.273 173.719 114.883C173.172 115.492 172.805 116.281 172.617 117.25C172.43 118.203 172.336 119.227 172.336 120.32V121.188C172.336 122.312 172.547 123.289 172.969 124.117C173.391 124.93 174 125.555 174.797 125.992C175.609 126.43 176.578 126.648 177.703 126.648C178.734 126.648 179.766 126.469 180.797 126.109C181.844 125.75 182.727 125.117 183.445 124.211L187.242 129.062C186.461 130.156 185.195 131.164 183.445 132.086C181.711 133.008 179.609 133.469 177.141 133.469ZM219.727 133H210.938V98.875H219.727V133ZM229.805 105.977H201.07V98.875H229.805V105.977ZM229.945 120.109C229.945 117.625 230.414 115.414 231.352 113.477C232.289 111.523 233.672 109.984 235.5 108.859C237.328 107.734 239.578 107.172 242.25 107.172C244.953 107.172 247.219 107.734 249.047 108.859C250.891 109.984 252.273 111.523 253.195 113.477C254.133 115.414 254.602 117.625 254.602 120.109V120.555C254.602 123.023 254.133 125.234 253.195 127.188C252.273 129.141 250.898 130.68 249.07 131.805C247.242 132.914 244.984 133.469 242.297 133.469C239.609 133.469 237.344 132.914 235.5 131.805C233.672 130.68 232.289 129.141 231.352 127.188C230.414 125.234 229.945 123.023 229.945 120.555V120.109ZM238.406 120.555C238.406 121.711 238.508 122.758 238.711 123.695C238.93 124.617 239.32 125.344 239.883 125.875C240.445 126.406 241.25 126.672 242.297 126.672C243.328 126.672 244.125 126.406 244.688 125.875C245.25 125.344 245.633 124.617 245.836 123.695C246.055 122.758 246.164 121.711 246.164 120.555V120.109C246.164 118.984 246.055 117.961 245.836 117.039C245.633 116.102 245.25 115.359 244.688 114.812C244.125 114.25 243.312 113.969 242.25 113.969C241.219 113.969 240.422 114.25 239.859 114.812C239.312 115.359 238.93 116.102 238.711 117.039C238.508 117.961 238.406 118.984 238.406 120.109V120.555ZM268.195 142.961C267.07 142.961 265.906 142.82 264.703 142.539C263.516 142.258 262.391 141.844 261.328 141.297C260.281 140.75 259.406 140.086 258.703 139.305L262.219 134.078C262.812 134.688 263.586 135.234 264.539 135.719C265.508 136.219 266.633 136.469 267.914 136.469C269.539 136.469 270.773 136.055 271.617 135.227C272.477 134.414 272.906 133.273 272.906 131.805V113.734L273.727 107.641H281.391V131.898C281.391 134.273 280.836 136.281 279.727 137.922C278.633 139.578 277.094 140.828 275.109 141.672C273.125 142.531 270.82 142.961 268.195 142.961ZM267.398 133.469C265.258 133.469 263.406 132.914 261.844 131.805C260.281 130.68 259.078 129.148 258.234 127.211C257.391 125.273 256.969 123.078 256.969 120.625V120.133C256.969 117.57 257.391 115.32 258.234 113.383C259.078 111.43 260.281 109.906 261.844 108.812C263.422 107.719 265.289 107.172 267.445 107.172C269.211 107.172 270.648 107.523 271.758 108.227C272.883 108.914 273.773 109.875 274.43 111.109C275.102 112.328 275.617 113.75 275.977 115.375C276.352 116.984 276.672 118.703 276.938 120.531V120.555C276.578 122.82 276.047 124.938 275.344 126.906C274.641 128.859 273.648 130.445 272.367 131.664C271.102 132.867 269.445 133.469 267.398 133.469ZM269.578 126.672C270.656 126.672 271.523 126.445 272.18 125.992C272.836 125.539 273.305 124.883 273.586 124.023C273.867 123.164 273.969 122.133 273.891 120.93V120.133C273.938 119.055 273.883 118.125 273.727 117.344C273.586 116.562 273.336 115.93 272.977 115.445C272.633 114.945 272.18 114.578 271.617 114.344C271.07 114.094 270.406 113.969 269.625 113.969C268.719 113.969 267.953 114.234 267.328 114.766C266.703 115.297 266.227 116.023 265.898 116.945C265.586 117.867 265.43 118.93 265.43 120.133V120.625C265.43 121.766 265.578 122.797 265.875 123.719C266.188 124.625 266.648 125.344 267.258 125.875C267.867 126.406 268.641 126.672 269.578 126.672ZM298.172 133.469C295.359 133.469 292.961 132.898 290.977 131.758C289.008 130.617 287.508 129.117 286.477 127.258C285.445 125.383 284.93 123.359 284.93 121.188V120.32C284.93 117.898 285.383 115.695 286.289 113.711C287.195 111.711 288.562 110.125 290.391 108.953C292.219 107.766 294.516 107.172 297.281 107.172C299.734 107.172 301.828 107.68 303.562 108.695C305.297 109.695 306.625 111.133 307.547 113.008C308.484 114.867 308.953 117.094 308.953 119.688V123.227H288.094V117.812H300.703V117.133C300.719 116.398 300.594 115.797 300.328 115.328C300.062 114.859 299.664 114.516 299.133 114.297C298.617 114.078 297.977 113.969 297.211 113.969C296.117 113.969 295.297 114.273 294.75 114.883C294.203 115.492 293.836 116.281 293.648 117.25C293.461 118.203 293.367 119.227 293.367 120.32V121.188C293.367 122.312 293.578 123.289 294 124.117C294.422 124.93 295.031 125.555 295.828 125.992C296.641 126.43 297.609 126.648 298.734 126.648C299.766 126.648 300.797 126.469 301.828 126.109C302.875 125.75 303.758 125.117 304.477 124.211L308.273 129.062C307.492 130.156 306.227 131.164 304.477 132.086C302.742 133.008 300.641 133.469 298.172 133.469ZM325.688 113.734H310.102V107.641H325.688V113.734ZM321.633 101.336V124.258C321.633 124.852 321.703 125.32 321.844 125.664C321.984 125.992 322.234 126.227 322.594 126.367C322.969 126.508 323.477 126.578 324.117 126.578C324.555 126.578 324.922 126.57 325.219 126.555C325.516 126.539 325.789 126.508 326.039 126.461V132.742C325.32 132.992 324.586 133.172 323.836 133.281C323.102 133.406 322.297 133.469 321.422 133.469C319.672 133.469 318.18 133.195 316.945 132.648C315.727 132.086 314.797 131.219 314.156 130.047C313.516 128.859 313.195 127.336 313.195 125.477V101.336H321.633ZM336.773 133H328.312V97H336.773V133ZM333.844 119.711C333.828 117.273 334.195 115.117 334.945 113.242C335.711 111.352 336.781 109.867 338.156 108.789C339.547 107.711 341.172 107.172 343.031 107.172C344.703 107.172 346.18 107.508 347.461 108.18C348.758 108.836 349.766 109.914 350.484 111.414C351.219 112.914 351.586 114.922 351.586 117.438V133H343.102V117.391C343.102 116.469 342.969 115.766 342.703 115.281C342.438 114.781 342.055 114.438 341.555 114.25C341.055 114.062 340.453 113.969 339.75 113.969C338.875 113.969 338.172 114.102 337.641 114.367C337.125 114.617 336.727 114.992 336.445 115.492C336.18 115.977 336 116.562 335.906 117.25C335.828 117.938 335.789 118.703 335.789 119.547L333.844 119.711ZM368.25 133.469C365.438 133.469 363.039 132.898 361.055 131.758C359.086 130.617 357.586 129.117 356.555 127.258C355.523 125.383 355.008 123.359 355.008 121.188V120.32C355.008 117.898 355.461 115.695 356.367 113.711C357.273 111.711 358.641 110.125 360.469 108.953C362.297 107.766 364.594 107.172 367.359 107.172C369.812 107.172 371.906 107.68 373.641 108.695C375.375 109.695 376.703 111.133 377.625 113.008C378.562 114.867 379.031 117.094 379.031 119.688V123.227H358.172V117.812H370.781V117.133C370.797 116.398 370.672 115.797 370.406 115.328C370.141 114.859 369.742 114.516 369.211 114.297C368.695 114.078 368.055 113.969 367.289 113.969C366.195 113.969 365.375 114.273 364.828 114.883C364.281 115.492 363.914 116.281 363.727 117.25C363.539 118.203 363.445 119.227 363.445 120.32V121.188C363.445 122.312 363.656 123.289 364.078 124.117C364.5 124.93 365.109 125.555 365.906 125.992C366.719 126.43 367.688 126.648 368.812 126.648C369.844 126.648 370.875 126.469 371.906 126.109C372.953 125.75 373.836 125.117 374.555 124.211L378.352 129.062C377.57 130.156 376.305 131.164 374.555 132.086C372.82 133.008 370.719 133.469 368.25 133.469ZM390.516 133H382.078V107.641H389.953L390.516 114.414V133ZM397.688 115.703C397.359 115.672 396.914 115.633 396.352 115.586C395.805 115.539 395.359 115.516 395.016 115.516C393.828 115.516 392.859 115.672 392.109 115.984C391.375 116.281 390.844 116.75 390.516 117.391C390.188 118.031 390.031 118.875 390.047 119.922L388.57 118.656C388.57 116.359 388.859 114.352 389.438 112.633C390.016 110.898 390.828 109.555 391.875 108.602C392.938 107.648 394.18 107.172 395.602 107.172C395.992 107.172 396.383 107.195 396.773 107.242C397.18 107.273 397.531 107.344 397.828 107.453L397.688 115.703Z" fill="white"/>
</g>
<defs>
<filter id="filter0_d_6441_2026" x="0.09375" y="0.5" width="242.951" height="61.1836" filterUnits="userSpaceOnUse" color-interpolation-filters="sRGB">
<feFlood flood-opacity="0" result="BackgroundImageFix"/>
<feColorMatrix in="SourceAlpha" type="matrix" values="0 0 0 0 0 0 0 0 0 0 0 0 0 0 0 0 0 0 127 0" result="hardAlpha"/>
<feOffset dy="4"/>
<feGaussianBlur stdDeviation="2"/>
<feComposite in2="hardAlpha" operator="out"/>
<feColorMatrix type="matrix" values="0 0 0 0 0 0 0 0 0 0 0 0 0 0 0 0 0 0 0.25 0"/>
<feBlend mode="normal" in2="BackgroundImageFix" result="effect1_dropShadow_6441_2026"/>
<feBlend mode="normal" in="SourceGraphic" in2="effect1_dropShadow_6441_2026" result="shape"/>
</filter>
<filter id="filter1_d_6441_2026" x="1.41406" y="97" width="400.414" height="53.9609" filterUnits="userSpaceOnUse" color-interpolation-filters="sRGB">
<feFlood flood-opacity="0" result="BackgroundImageFix"/>
<feColorMatrix in="SourceAlpha" type="matrix" values="0 0 0 0 0 0 0 0 0 0 0 0 0 0 0 0 0 0 127 0" result="hardAlpha"/>
<feOffset dy="4"/>
<feGaussianBlur stdDeviation="2"/>
<feComposite in2="hardAlpha" operator="out"/>
<feColorMatrix type="matrix" values="0 0 0 0 0 0 0 0 0 0 0 0 0 0 0 0 0 0 0.25 0"/>
<feBlend mode="normal" in2="BackgroundImageFix" result="effect1_dropShadow_6441_2026"/>
<feBlend mode="normal" in="SourceGraphic" in2="effect1_dropShadow_6441_2026" result="shape"/>
</filter>
</defs>
</svg>
